# xmcd CD database file
#
# Track frame offsets:
#	150
#	15520
#	25033
#	37966
#	52331
#	62841
#	74121
#	83599
#	96973
#	110759
#	121229
#	132605
#	142338
#	153735
#	164578
#	178687
#	191949
#	206655
#	218918
#	232548
#	245718
#	259199
#	272347
#	282340
#
# Disc length: 3902 seconds
#
# Revision: 0
# Processed by: cddbd v1.5.1PL0 Copyright (c) Steve Scherf et al.
# Submitted via: CDex 1.50
#
DISCID=760f3c18
DTITLE=The Four Brothers - Greatest hits
DYEAR=1900
DGENRE=Blues
TTITLE0=Abraham, Martin and John
TTITLE1=San Francisco Bay Blues
TTITLE2=I'll be your baby tonight
TTITLE3=Medley: I've got do get a message to you, I started a joke
TTITLE4=Without her
TTITLE5=Brandy Wine Blue
TTITLE6=Wichita lineman
TTITLE7=Both sides now
TTITLE8=Spring hill mine disaster
TTITLE9=Don't let the rain come down
TTITLE10=The banana boat song
TTITLE11=Wish I was in Bowling Green
TTITLE12=Yellow bird
TTITLE13=Rider in the sky
TTITLE14=Greenfields
TTITLE15=Slowly, slowly
TTITLE16=Angelique-o
TTITLE17=Frogg n# 1
TTITLE18=Nobody knows
TTITLE19=I am a roving gambler
TTITLE20=The green leaves of summer
TTITLE21=Blue water line
TTITLE22=Eddystone light
TTITLE23=My tani
EXTD=
EXTT0=
EXTT1=
EXTT2=
EXTT3=
EXTT4=
EXTT5=
EXTT6=
EXTT7=
EXTT8=
EXTT9=
EXTT10=
EXTT11=
EXTT12=
EXTT13=
EXTT14=
EXTT15=
EXTT16=
EXTT17=
EXTT18=
EXTT19=
EXTT20=
EXTT21=
EXTT22=
EXTT23=
PLAYORDER=
